REM MD5 a56d2bf18458c6a84dbe1bc946ba2f5b
FILE "Guy Roux Manager 2001 (France).bin" BINARY
  TRACK 01 MODE2/2352
    INDEX 01 00:00:00
  TRACK 02 AUDIO
    INDEX 00 04:44:05
    INDEX 01 04:46:05
  TRACK 03 AUDIO
    INDEX 00 04:55:03
    INDEX 01 04:57:03
  TRACK 04 AUDIO
    INDEX 00 05:52:12
    INDEX 01 05:54:12
  TRACK 05 AUDIO
    INDEX 00 08:27:40
    INDEX 01 08:29:40
REM LEADOUT 09:29:40
